<svg width="67" height="67" xmlns="http://www.w3.org/2000/svg">

 <g>
  <title>background</title>
  <rect fill="none" id="canvas_background" height="402" width="582" y="-1" x="-1"/>
 </g>
 <g>
  <title>Layer 1</title>
  <path stroke="null" id="svg_1" fill-rule="evenodd" clip-rule="evenodd" fill="#5e5e5e" d="m28.793543,51.636812l7.494771,0l0,-18.139034l4.999848,0l0.662349,-6.250087l-5.662197,0l0.007779,-3.129489c0,-1.629201 0.155585,-2.503813 2.493812,-2.503813l3.125044,0l0,-6.251199l-5.000959,0c-6.006707,0 -8.120446,3.032804 -8.120446,8.131559l0,3.752942l-3.744051,0l0,6.251199l3.744051,0l0,18.137923zm4.706458,15.202915c-18.41242,0 -33.339726,-14.927307 -33.339726,-33.339726c0,-18.413531 14.927307,-33.339726 33.339726,-33.339726s33.339726,14.926196 33.339726,33.339726c0,18.41242 -14.927307,33.339726 -33.339726,33.339726z"/>
 </g>
</svg>