<svg width="56.69339999999999" height="56.69339999999999" xmlns="http://www.w3.org/2000/svg">

 <g>
  <title>background</title>
  <rect fill="none" id="canvas_background" height="402" width="582" y="-1" x="-1"/>
 </g>
 <g>
  <title>Layer 1</title>
  <path fill="#5e5e5e" stroke="null" id="svg_1" d="m28.257155,0.207688c-15.59185,0 -28.230322,12.641796 -28.230322,28.230322c0,15.590704 12.638471,28.228029 28.230322,28.228029c15.590704,0 28.230322,-12.637325 28.230322,-28.228029c0,-15.58864 -12.639618,-28.230322 -28.230322,-28.230322zm16.219395,34.236244c-0.799162,2.753216 -2.308524,5.315211 -4.424566,7.25975c-2.001859,1.848241 -4.509171,3.114564 -7.15921,3.724454c-2.93217,0.667325 -6.033092,0.685094 -8.946117,-0.096298c-2.308524,-0.614017 -4.486013,-1.71434 -6.353972,-3.203984c-1.980078,-1.573676 -3.612449,-3.581038 -4.750948,-5.839005c-1.751942,-3.459404 -2.290754,-7.509094 -1.517731,-11.307261c0.307352,-1.524495 0.818995,-3.006572 1.51968,-4.395218c2.012865,-4.029742 5.643084,-7.21802 9.90635,-8.677628c3.78315,-1.309314 8.021195,-1.279966 11.779123,0.103177c2.087267,0.766374 3.997643,1.978702 5.627263,3.486688c-0.545117,0.59212 -1.13655,1.143428 -1.699322,1.719843c-1.073039,1.070975 -2.142638,2.145963 -3.217741,3.214875c-1.063409,-1.015604 -2.361832,-1.787366 -3.770195,-2.214977c-1.65702,-0.501325 -3.441634,-0.570338 -5.134193,-0.20899c-1.976638,0.423483 -3.811237,1.456169 -5.222352,2.900759c-1.144002,1.158332 -2.014928,2.581713 -2.538035,4.122601c-0.753993,2.186317 -0.748605,4.621289 -0.003439,6.809555c0.728772,2.151466 2.148027,4.063217 4.007846,5.36978c1.163147,0.820256 2.49642,1.402173 3.893205,1.680865c1.373513,0.278004 2.796206,0.247968 4.173158,0.013069c1.368125,-0.239714 2.695208,-0.74379 3.8501,-1.520368c1.83735,-1.227345 3.132907,-3.221065 3.501133,-5.401191c-3.176012,-0.001376 -6.352711,-0.000688 -9.52941,0c-0.004012,-2.274361 -0.000573,-4.549524 -0.001376,-6.824573c5.485223,-0.000688 10.970446,-0.002064 16.45567,0.000573c0.546837,3.074325 0.426579,6.280258 -0.444921,9.283506z"/>
 </g>
</svg>