<svg xmlns="http://www.w3.org/2000/svg" width="113.742" height="83.583" viewBox="0 0 113.742 83.583">
  <g id="logo" transform="translate(-22.806 -15.428)">
    <rect id="Rectangle_1" data-name="Rectangle 1" width="113.742" height="10.953" transform="translate(22.806 77.107)" fill="#d1d3d4"/>
    <g id="Group_1" data-name="Group 1" transform="translate(23.884 15.428)">
      <path id="Path_1" data-name="Path 1" d="M197.621,210.348h-5.447V195.936a10.484,10.484,0,0,1,3.567-8.374q3.563-3.066,10.322-3.066a18.462,18.462,0,0,1,5.664.806,12.43,12.43,0,0,1,4.26,2.283,9.469,9.469,0,0,1,2.649,3.584,11.982,11.982,0,0,1,.9,4.767v14.411h-5.446V194.577a8.236,8.236,0,0,0-.724-3.649,6.193,6.193,0,0,0-1.918-2.346,7.453,7.453,0,0,0-2.676-1.211,11.369,11.369,0,0,0-2.94-.3,10.626,10.626,0,0,0-2.944.329,7.491,7.491,0,0,0-2.64,1.239,6.393,6.393,0,0,0-1.9,2.323,8.061,8.061,0,0,0-.725,3.619Z" transform="translate(-159.18 -150.485)" fill="#70ad3a"/>
      <path id="Path_2" data-name="Path 2" d="M229.757,159.539V187.8h-5.443V159.539h-32.14l2.18-3.271h40.8l-2.179,3.271Z" transform="translate(-159.18 -127.935)" fill="#70ad3a"/>
      <path id="Path_3" data-name="Path 3" d="M412,184.5v25.851h-5.448V184.5Z" transform="translate(-330.428 -150.485)" fill="#70ad3a"/>
      <path id="Path_4" data-name="Path 4" d="M412,159.539h-5.448l2.182-3.271h5.447Z" transform="translate(-330.428 -127.935)" fill="#70ad3a"/>
      <path id="Path_5" data-name="Path 5" d="M457.681,209.336H452.24V194.671A10.478,10.478,0,0,1,455.8,186.3q3.571-3.066,10.324-3.068a18.382,18.382,0,0,1,5.664.808,12.446,12.446,0,0,1,4.256,2.283,9.508,9.508,0,0,1,2.654,3.586,12.093,12.093,0,0,1,.894,4.765v14.665h-5.44V193.312a8.233,8.233,0,0,0-.729-3.65,6.183,6.183,0,0,0-1.912-2.346,7.468,7.468,0,0,0-2.675-1.211,11.511,11.511,0,0,0-2.939-.306,10.677,10.677,0,0,0-2.942.327,7.527,7.527,0,0,0-2.645,1.241,6.4,6.4,0,0,0-1.9,2.326,8.044,8.044,0,0,0-.728,3.618v16.024Z" transform="translate(-366.928 -149.473)" fill="#70ad3a"/>
      <path id="Path_6" data-name="Path 6" d="M52.447,37.035c-3.312-4.754-7.635-12.323-8.324-18.642a1.543,1.543,0,0,0,1.043-1.426,1.682,1.682,0,0,0-3.352,0A1.549,1.549,0,0,0,42.87,18.4c-.688,6.321-5.008,13.884-8.319,18.639-3.441,4.938-8.989,10.628-5,20.886s4.274,17.369,4.274,17.369H39.3c-1.513-9.753-3.57-13.991-4.2-18.752-.983-7.431,4.372-11.19,6.638-12.429a2.858,2.858,0,0,1-1.468-2.452,2.754,2.754,0,0,1,.624-1.733s2.131-18.4,2.537-21.882a1.12,1.12,0,0,1-1.116-1.075,1.18,1.18,0,1,1,1.247,1.073C43.97,21.523,46.1,39.925,46.1,39.925a2.756,2.756,0,0,1,.627,1.733,2.859,2.859,0,0,1-1.47,2.452c2.266,1.239,7.623,5,6.642,12.429-.635,4.761-2.687,9-4.2,18.752h5.469s.284-7.111,4.274-17.369S55.89,41.974,52.447,37.035Z" transform="translate(-28.166 -15.428)" fill="#70ad3a"/>
    </g>
    <g id="Group_2" data-name="Group 2" transform="translate(24.061 89.386)">
      <path id="Path_7" data-name="Path 7" d="M29.045,397.831v-6.324H30.5v2.48h2.012v-2.48h1.459v6.324H32.516v-2.866H30.5v2.866Z" transform="translate(-29.045 -389.807)" fill="#70ad3a"/>
      <path id="Path_8" data-name="Path 8" d="M58.651,391.085l1.777-6.324H62.4l1.792,6.324H62.609l-.389-1.59H60.53l-.378,1.59Zm3.5-6.853h-.64l-1.562-1.17h1.31Zm-1.393,4.316h1.25l-.63-2.654Z" transform="translate(-52.695 -383.062)" fill="#70ad3a"/>
      <path id="Path_9" data-name="Path 9" d="M91.337,397.831v-6.324h1.511l2.053,4.423-.041-4.423h1.388v6.324h-1.5L92.678,393.4l.041,4.431Z" transform="translate(-78.806 -389.807)" fill="#70ad3a"/>
      <path id="Path_10" data-name="Path 10" d="M123.717,397.831v-6.324h1.459v2.48h2.012v-2.48h1.459v6.324h-1.459v-2.866h-2.012v2.866Z" transform="translate(-104.672 -389.807)" fill="#70ad3a"/>
      <path id="Path_11" data-name="Path 11" d="M169.4,397.831v-5.281h-1.689v-1.043h4.849v1.043h-1.69v5.281Z" transform="translate(-139.815 -389.807)" fill="#70ad3a"/>
      <path id="Path_12" data-name="Path 12" d="M196.962,397.831v-6.324h2.632a2.92,2.92,0,0,1,1.715.39,1.2,1.2,0,0,1,.394.507,1.928,1.928,0,0,1,.134.757,1.527,1.527,0,0,1-.277.97,1.2,1.2,0,0,1-.834.418,1.34,1.34,0,0,1,.809.471,1.493,1.493,0,0,1,.282.947v.082l.041.838a1.557,1.557,0,0,0,.028.309,1.174,1.174,0,0,0,.084.265.978.978,0,0,0,.287.37h-1.741a1.748,1.748,0,0,1-.092-.373c-.007-.061-.015-.152-.025-.276s-.015-.235-.015-.337l-.021-.66v-.169a.862.862,0,0,0-.294-.754,2.277,2.277,0,0,0-1.185-.207h-.5v2.776h-1.418Zm1.418-3.651h.845a1.43,1.43,0,0,0,.886-.207.907.907,0,0,0,.25-.733.745.745,0,0,0-.274-.659,1.826,1.826,0,0,0-.986-.191h-.722v1.789Z" transform="translate(-163.182 -389.807)" fill="#70ad3a"/>
      <path id="Path_13" data-name="Path 13" d="M226.833,384.232h-.64l-1.562-1.17h1.311Zm-1.454,6.853v-6.324h1.469v6.324Z" transform="translate(-185.285 -383.062)" fill="#70ad3a"/>
      <path id="Path_14" data-name="Path 14" d="M243.626,397.831v-6.324h1.51l2.053,4.423-.041-4.423h1.388v6.324h-1.5l-2.068-4.431.041,4.431Z" transform="translate(-200.458 -389.807)" fill="#70ad3a"/>
      <path id="Path_15" data-name="Path 15" d="M276,397.831v-6.324h1.459v2.48h2.012v-2.48h1.459v6.324h-1.459v-2.866h-2.012v2.866Z" transform="translate(-226.322 -389.807)" fill="#70ad3a"/>
      <path id="Path_16" data-name="Path 16" d="M322.823,397.831v-6.324h1.459v2.48h2.013v-2.48h1.46v6.324h-1.46v-2.866h-2.013v2.866Z" transform="translate(-263.723 -389.807)" fill="#70ad3a"/>
      <path id="Path_17" data-name="Path 17" d="M352.428,397.831l1.777-6.324h1.971l1.792,6.324h-1.582l-.39-1.59h-1.689l-.379,1.59Zm2.11-2.537h1.249l-.631-2.654Zm.1,4.139v-.974h1.126v.974Z" transform="translate(-287.372 -389.807)" fill="#70ad3a"/>
      <path id="Path_18" data-name="Path 18" d="M385.118,397.831v-6.324h1.51l2.053,4.423-.04-4.423h1.387v6.324h-1.5l-2.068-4.431.042,4.431Z" transform="translate(-313.486 -389.807)" fill="#70ad3a"/>
      <path id="Path_19" data-name="Path 19" d="M417.5,397.831v-6.324h1.46v2.48h2.012v-2.48h1.46v6.324h-1.46v-2.866h-2.012v2.866Z" transform="translate(-339.352 -389.807)" fill="#70ad3a"/>
      <path id="Path_20" data-name="Path 20" d="M464.316,397.831v-6.324h2.55a2.672,2.672,0,0,1,1.68.419,1.269,1.269,0,0,1,.384.548,2.335,2.335,0,0,1,.128.824,1.716,1.716,0,0,1-.543,1.4,2.554,2.554,0,0,1-1.669.456h-1.07v2.681Zm1.418-3.556h.614a1.613,1.613,0,0,0,.96-.216.876.876,0,0,0,.279-.737.893.893,0,0,0-.251-.728,1.621,1.621,0,0,0-.968-.2h-.635Z" transform="translate(-376.751 -389.807)" fill="#70ad3a"/>
      <path id="Path_21" data-name="Path 21" d="M494.022,397.831v-6.324h1.459v2.48h2.012v-2.48h1.46v6.324h-1.46v-2.866h-2.012v2.866Z" transform="translate(-400.481 -389.807)" fill="#70ad3a"/>
      <path id="Path_22" data-name="Path 22" d="M526.505,384.761h1.469v4.262a1.6,1.6,0,0,0,.223.99,1,1,0,0,0,.791.263.968.968,0,0,0,.778-.264,1.645,1.645,0,0,0,.22-1v-4.247h1.45v4.365a3.559,3.559,0,0,1-.088.925,1.268,1.268,0,0,1-.3.522,1.981,1.981,0,0,1-.84.5,3.645,3.645,0,0,1-.568.124,5.154,5.154,0,0,1-.671.041,2.99,2.99,0,0,1-1.905-.468,2.047,2.047,0,0,1-.558-1.643Zm1.741-.529.891-1.17h1.311l-1.562,1.17Z" transform="translate(-426.429 -383.062)" fill="#70ad3a"/>
      <path id="Path_23" data-name="Path 23" d="M561.439,394.977h1.429l0,.123.005.123a2.114,2.114,0,0,1-.574,1.63,2.528,2.528,0,0,1-1.766.531,3.541,3.541,0,0,1-.97-.115,1.848,1.848,0,0,1-.694-.366,1.741,1.741,0,0,1-.561-.9,8.3,8.3,0,0,1-.166-2,10.141,10.141,0,0,1,.095-1.565,1.948,1.948,0,0,1,.3-.851,1.859,1.859,0,0,1,.789-.627,3.134,3.134,0,0,1,1.2-.2,2.526,2.526,0,0,1,1.746.5,2.089,2.089,0,0,1,.548,1.607h-1.423v-.152a1.2,1.2,0,0,0-.205-.767.771.771,0,0,0-.634-.251.747.747,0,0,0-.717.352,5.4,5.4,0,0,0-.195,1.927,6.543,6.543,0,0,0,.184,2.074.722.722,0,0,0,.717.374.768.768,0,0,0,.684-.289,2.051,2.051,0,0,0,.2-1.07Z" transform="translate(-451.705 -389.208)" fill="#70ad3a"/>
    </g>
    <path id="Path_24" data-name="Path 24" d="M60.458,336.386H58.83a.322.322,0,0,0-.225.069.522.522,0,0,0-.123.246h-.154v-1.564h.154a.506.506,0,0,0,.123.248.328.328,0,0,0,.225.066h3.129v.157a.512.512,0,0,0-.244.128.339.339,0,0,0-.07.231v1.378a.345.345,0,0,0,.067.231.492.492,0,0,0,.246.128v.123a7.24,7.24,0,0,1-3.641,1.092,4.17,4.17,0,0,1-2.608-.772,3.5,3.5,0,0,1-.14-5.274,4.268,4.268,0,0,1,2.849-.905,5.16,5.16,0,0,1,1.065.106,7.289,7.289,0,0,1,1.137.357,1.492,1.492,0,0,0,.468.133.4.4,0,0,0,.237-.113l.135.074-.772,1.609-.14-.074a.558.558,0,0,0-.044-.234.649.649,0,0,0-.174-.174,2.584,2.584,0,0,0-.864-.386,4,4,0,0,0-1.077-.16,2.523,2.523,0,0,0-1.714.59,2.23,2.23,0,0,0-.768,1.767,2.17,2.17,0,0,0,.748,1.717,2.643,2.643,0,0,0,1.806.6,4.558,4.558,0,0,0,1.076-.128,3.473,3.473,0,0,0,.918-.349Z" transform="translate(-25.271 -252.861)" fill="#fff"/>
    <path id="Path_25" data-name="Path 25" d="M183.608,336.529v2.229a.339.339,0,0,0,.07.229.461.461,0,0,0,.239.126v.157H181.86v-.157a.489.489,0,0,0,.241-.128.339.339,0,0,0,.068-.226v-5.687a.347.347,0,0,0-.068-.231.492.492,0,0,0-.241-.128v-.158h4.124a6.353,6.353,0,0,1,1.2.089,2.1,2.1,0,0,1,.771.31,1.555,1.555,0,0,1,.57.694,2.3,2.3,0,0,1,.179.905,1.821,1.821,0,0,1-1.791,1.924l1.28,1.855a4.172,4.172,0,0,0,.495.627.619.619,0,0,0,.384.155v.157h-2.385v-.157q.246-.039.246-.177a1.266,1.266,0,0,0-.227-.428l-1.333-1.978h-1.758Zm0-1.107h2.221a5.584,5.584,0,0,0,.7-.029,1.082,1.082,0,0,0,.372-.123.906.906,0,0,0,0-1.456,1.03,1.03,0,0,0-.369-.126,6.076,6.076,0,0,0-.7-.027h-2.221Z" transform="translate(-127.057 -253.329)" fill="#fff"/>
    <path id="Path_26" data-name="Path 26" d="M292.095,331.968a3.828,3.828,0,0,1,2.733.95,3.351,3.351,0,0,1,1.067,2.568,3.387,3.387,0,0,1-.512,1.8,3.546,3.546,0,0,1-3.279,1.633,3.808,3.808,0,0,1-2.719-.95,3.3,3.3,0,0,1-.821-1.215,3.55,3.55,0,0,1-.246-1.313,3.492,3.492,0,0,1,.507-1.845A3.576,3.576,0,0,1,292.095,331.968Zm0,1.136a2.244,2.244,0,0,0-1.569.571,2.337,2.337,0,0,0,1.579,4.1,2.2,2.2,0,0,0,2.144-1.4,2.43,2.43,0,0,0,.174-.905,2.269,2.269,0,0,0-.743-1.8A2.339,2.339,0,0,0,292.1,333.1Z" transform="translate(-212.099 -252.861)" fill="#fff"/>
    <path id="Path_27" data-name="Path 27" d="M411.805,333.072v3.764a2.715,2.715,0,0,1-.386,1.6q-.695.954-2.873.954a4.614,4.614,0,0,1-2.409-.517,1.568,1.568,0,0,1-.676-.817,3.621,3.621,0,0,1-.183-1.22v-3.764a.346.346,0,0,0-.067-.231.493.493,0,0,0-.242-.128v-.158h2.062v.158a.469.469,0,0,0-.244.125.349.349,0,0,0-.07.234v3.35a4.255,4.255,0,0,0,.063.859.992.992,0,0,0,.236.465,2.76,2.76,0,0,0,3.173,0,1.013,1.013,0,0,0,.232-.465,4.263,4.263,0,0,0,.063-.859v-3.35a.346.346,0,0,0-.067-.231.494.494,0,0,0-.242-.128v-.158h1.941v.158a.491.491,0,0,0-.241.128A.346.346,0,0,0,411.805,333.072Z" transform="translate(-305.281 -253.329)" fill="#fff"/>
    <path id="Path_28" data-name="Path 28" d="M531.95,336.545v2.214a.338.338,0,0,0,.07.229.462.462,0,0,0,.239.126v.157H530.2v-.157a.489.489,0,0,0,.242-.128.338.338,0,0,0,.068-.226v-5.687a.346.346,0,0,0-.068-.231.493.493,0,0,0-.242-.128v-.158h4.114a5.237,5.237,0,0,1,1.142.1,1.985,1.985,0,0,1,.746.339,1.694,1.694,0,0,1,.521.659,2.176,2.176,0,0,1,.189.9,2.029,2.029,0,0,1-.357,1.191,1.679,1.679,0,0,1-.818.622,4.337,4.337,0,0,1-1.422.185Zm0-1.107h2.2a2.111,2.111,0,0,0,.922-.143.672.672,0,0,0,.273-.3,1.016,1.016,0,0,0,0-.9.674.674,0,0,0-.273-.3,2.089,2.089,0,0,0-.922-.143h-2.2Z" transform="translate(-405.322 -253.33)" fill="#fff"/>
  </g>
</svg>
